# xmcd CD database file
#
# Track frame offsets:
#	151
#	19252
#	37864
#	53542
#	68907
#	90641
#	100372
#	117854
#	133969
#	154487
#	177129
#	194967
#	211527
#	235912
#	255069
#
# Disc length: 3759 seconds
#
# Revision: 1
# Processed by: cddbd v1.4PL0 Copyright (c) Steve Scherf et al.
# Submitted via: CDex 1.50Beta7
#
DISCID=c80ead0f
DTITLE=Various Artist - Homenaje - Artistas Cubanos nominados al Grammy
DYEAR=2000
DGENRE=Salsa
TTITLE0=Chan Chan - Eliades Ochoa con el Cuarteto Patria
TTITLE1=El cuarto de tula - Eliades Ochoa con el Cuarteto Patria
TTITLE2=Yo soy de monte compay - Eliades Ochoa con el Cuarteto Patria
TTITLE3=Mambo en re menor - Chucho Valdes
TTITLE4=El bolera - Chucho Valdes
TTITLE5=Marcia - Chucho Valdes
TTITLE6=La chica del granizado - Ibrahim Ferrer
TTITLE7=Viene de la tierra caliente - Ibrahim Ferrer
TTITLE8=Compositor confundido - Ibrahim Ferrer
TTITLE9=Homo blues - Gonzalo Rubalcaba
TTITLE10=Delirio No.1 - Gonzalo Rubalcaba
TTITLE11=Mambo influenciado - Gonzalo Rubalcaba
TTITLE12=Eso que anda - Juan Formell y los Van Van
TTITLE13=Nosotros los del caribe - Juan Formell y los Van Van
TTITLE14=Aqui el que baila gana - Juan Formell y los Van Van
EXTD=YEAR: 2000
EXTT0=
EXTT1=
EXTT2=
EXTT3=
EXTT4=
EXTT5=
EXTT6=
EXTT7=
EXTT8=
EXTT9=
EXTT10=
EXTT11=
EXTT12=
EXTT13=
EXTT14=
PLAYORDER=
